<svg xmlns="http://www.w3.org/2000/svg" viewBox="0 0 80.166 40.893">
  <path
    d="M79.212 14.174l-1.662 3.57c-.541-1.412-1.774-2.014-3.558-1.912-1.182.068-2.623 1.095-2.607 2.794.043 1.502.816 2.214 4.562 4.165 3.439 1.801 4.219 3.84 4.219 5.936 0 3.648-2.451 6.33-6.833 6.344-3.36-.014-5.326-1.854-5.326-4.094.002-1.762 1.001-3.107 2.683-3.508-.608.701-.699 1.568-.709 1.971.01 1.115.635 3.014 3.354 3.014 1.561 0 2.8-1.029 2.8-2.953-.012-2.547-1.946-3.342-3.723-4.246-1.166-.588-4.429-2.322-4.429-6.338-.004-3.054 2.812-5.43 5.781-5.447 2.754-.018 2.052 1.225 5.448.704zM58.807 16.186c-.016-.856-.25-1.945-.77-2.431l9.445.005-.521 3.656c-.488-.53-1.076-1.233-1.814-1.233-.754.002-2.328 0-2.338 0v5.973c.01.012 1.211.012 1.846 0 .646.012 1.285-.135 1.938-.771v4.062c-.547-.433-1.188-.828-1.814-.828l-1.969-.002v7.601c.49.153 3.562-.021 4.676-1.661l-.646 4.092h-8.895c.762-.637.848-1.646.861-2.398V16.186h.001z" />
  <path
    d="M49.328 16.186c.014-.856-.223-1.945-.77-2.431h5.569c-.53.485-.737 1.575-.737 2.431v15.971c.479.169 3.549-.007 4.678-1.661l-.771 4.152h-8.8c.524-.318.845-1.387.831-2.491V16.186zM47.852 13.754l.676 4.185c-.383-.733-1.678-1.757-2.369-1.757l-1.17.002c-.279 0-.393.497-.393.984-.007.846.17 19.453.239 20.617.043 1.184.669 2.622 1.14 3.108h-7.231c.469-.486 1.094-1.927 1.139-3.108.069-1.164.241-19.771.241-20.617.006-.487-.114-.987-.394-.987l-1.17.002c-.689 0-1.978.968-2.369 1.754l.677-4.185h10.984v.002z" />
  <path
    d="M29.326 13.754c.752.974.859 1.585.647 2.431l-3.569 16.064c-.157.699-.529 1.815-1.169 2.397h4.861c-.738-.56-.925-1.438-.738-2.397l.555-2.4h3.908l.554 2.309c.147.596.004 2.068-.647 2.492h5.539c-.493-.424-1.134-1.439-1.416-2.432l-3.446-16.001c-.21-.85-.102-1.488.646-2.463h-5.725zm4.032 13.787h-2.923l1.507-6.555 1.416 6.555zM16.803 16.186c.013-.856-.222-1.945-.77-2.431l9.448.005-.493 3.656c-.493-.53-1.079-1.233-1.815-1.233-.757.002-2.331 0-2.339 0v5.973c.008.012 1.208.012 1.846 0 .643.012 1.282-.135 1.907-.771v4.062c-.518-.433-1.158-.828-1.784-.828l-1.969-.002v7.601c.489.153 3.56-.021 4.677-1.661l-.646 4.092h-8.893c.757-.637.843-1.646.831-2.398V16.186z" />
  <path
    d="M9.049.739c3.61-.015 6.149 1.768 6.149 7.938.004 3.596-1.092 6.449-3.319 7.632 2.125 1.135 4.168 3.817 4.154 8.339.014 7.764-3.216 10.003-7.324 10.003l-8.708-.004c1.017-1.119 1.412-2.08 1.412-3.478L1.416 4.06c0-1.376-.399-2.243-1.416-3.352l9.049.031zm-3.017 13.2c0 .76.668.973 1.785.984 2.524-.011 2.821-2.731 2.831-6.308-.01-4.62-1.193-5.638-2.893-5.632-1.007-.006-1.722.551-1.722 1.17l-.001 9.786zM8.37 31.941c2.546 0 2.859-2.58 2.859-7.324.002-4.246-1.169-6.45-3.135-6.462-.844.012-2.061.171-2.061.8v11.324c-.001.902.937 1.664 2.337 1.664v-.002zM43.635.954c.008-.331-.104-.753-.369-.954.596.013 4.512.013 4.523 0l-.245 1.447c-.242-.223-.521-.49-.862-.49-.371-.003-1.121 0-1.107 0v2.305c-.014.007.559.007.861 0 .308.007.612-.026.924-.277V4.77c-.26-.179-.565-.38-.861-.37h-.923v2.831c.216.062 1.68-.006 2.215-.646l-.308 1.601h-4.248c.367-.247.408-.663.4-.954V.954zM40.036 8.186h2.737c-.246-.122-.399-.525-.399-.954V.954c0-.331.104-.752.37-.954h-2.647c.243.201.348.623.339.954v2.309h-1.108V.954c-.014-.331.091-.753.338-.954h-2.647c.26.201.365.623.365.954l.004 6.278c0 .429-.156.832-.4.954h2.708c-.23-.122-.382-.525-.37-.954V4.399h1.108v2.832c.011.43-.141.832-.398.955zM33.019 1.354c0-.186-.054-.381-.185-.37h-.646c-.324-.012-.775.369-.954.678L31.389 0h5.23l.154 1.662c-.175-.289-.63-.689-.954-.678h-.677c-.141-.012-.195.184-.185.37v5.878c-.012.412.109.771.338.954h-2.614c.17-.145.335-.492.335-.954l.003-5.878z" />
</svg>
